<?xml version="1.0" standalone="no"?>
<!DOCTYPE svg PUBLIC "-//W3C//DTD SVG 20010904//EN"
 "http://www.w3.org/TR/2001/REC-SVG-20010904/DTD/svg10.dtd">
<svg version="1.0" class="backgroundSVG" xmlns="http://www.w3.org/2000/svg"
 width="1024.000000pt" height="1024.000000pt" viewBox="0 0 1024.000000 1024.000000"
 preserveAspectRatio="xMidYMid meet">
<metadata>
Created by potrace 1.16, written by Peter Selinger 2001-2019
</metadata>
<g transform="translate(0.000000,1024.000000) scale(0.100000,-0.100000)"
fill="#00000" stroke="none">
<path d="M4790 9330 c0 -11 15 -51 34 -88 95 -191 115 -378 56 -534 -11 -30
-45 -90 -76 -134 -166 -237 -187 -282 -188 -414 -1 -72 3 -94 26 -142 29 -63
95 -139 148 -173 31 -19 141 -65 157 -65 3 0 -13 19 -35 42 -47 47 -82 128
-82 186 0 54 26 147 55 196 13 23 55 80 93 126 100 125 147 197 180 278 16 40
32 75 35 79 10 10 8 -57 -3 -117 -12 -61 -5 -78 11 -32 6 18 14 32 18 32 9 0
84 -130 110 -193 39 -92 55 -169 54 -272 0 -83 -4 -111 -26 -168 -14 -37 -39
-84 -54 -104 l-27 -36 24 8 c56 17 97 42 155 97 105 98 155 218 155 372 0 247
-129 487 -414 771 -134 134 -238 218 -337 274 -66 37 -69 37 -69 11z"/>
<path d="M5968 9109 c-20 -11 -51 -110 -46 -146 4 -34 32 -52 56 -37 18 11 56
139 48 161 -8 20 -40 32 -58 22z"/>
<path d="M3212 8788 c-19 -19 -14 -40 31 -124 34 -65 46 -79 66 -79 13 0 30 9
37 21 13 18 10 28 -22 90 -54 103 -80 124 -112 92z"/>
<path d="M6968 8783 c-24 -27 -78 -140 -78 -162 0 -27 36 -47 56 -31 16 14 94
152 94 168 0 15 -29 42 -44 42 -7 0 -20 -8 -28 -17z"/>
<path d="M2846 8564 c-25 -24 -29 -16 88 -179 77 -107 84 -114 107 -108 24 7
43 39 33 56 -4 6 -45 65 -91 130 -86 120 -105 134 -137 101z"/>
<path d="M7282 8503 c-127 -169 -142 -202 -102 -223 29 -15 45 -1 128 111 85
114 102 150 83 173 -26 31 -49 17 -109 -61z"/>
<path d="M2297 8092 c-10 -10 -17 -23 -17 -28 0 -16 235 -244 252 -244 9 0 24
10 32 22 14 20 14 24 -2 47 -27 41 -219 221 -234 221 -8 0 -22 -8 -31 -18z"/>
<path d="M7778 7995 c-65 -64 -118 -121 -118 -128 1 -26 29 -49 52 -44 13 4
74 58 137 121 110 112 113 116 99 138 -29 43 -48 33 -170 -87z"/>
<path d="M3965 8086 c-19 -13 -18 -17 19 -137 22 -68 45 -134 53 -146 24 -40
73 -23 73 24 0 35 -69 240 -86 258 -19 19 -35 19 -59 1z"/>
<path d="M6219 8090 c-9 -5 -36 -68 -60 -140 -47 -138 -47 -161 -1 -168 29 -4
46 25 92 162 39 116 39 117 19 137 -21 21 -27 22 -50 9z"/>
<path d="M3290 8001 c-14 -26 -13 -27 147 -266 108 -160 132 -190 155 -193 19
-2 30 3 38 17 14 27 9 37 -148 266 -105 155 -134 191 -155 193 -18 2 -29 -3
-37 -17z"/>
<path d="M6852 7968 c-21 -29 -87 -124 -146 -210 -83 -123 -107 -164 -104
-185 2 -22 9 -29 29 -31 32 -4 40 6 202 245 64 94 117 180 117 190 0 24 -19
43 -42 43 -9 0 -35 -24 -56 -52z"/>
<path d="M3708 7939 c-10 -5 -18 -18 -18 -28 0 -29 84 -213 103 -225 22 -14
51 3 55 31 4 28 -65 194 -90 216 -23 20 -27 20 -50 6z"/>
<path d="M6476 7931 c-19 -21 -96 -193 -96 -214 0 -20 22 -37 48 -37 20 0 30
14 68 96 63 136 65 153 18 168 -14 4 -26 0 -38 -13z"/>
<path d="M7186 7878 c-48 -44 -296 -330 -296 -343 0 -15 32 -45 49 -45 13 0
69 59 211 220 111 127 120 143 95 170 -23 25 -28 25 -59 -2z"/>
<path d="M2992 7878 c-7 -7 -12 -19 -12 -28 0 -14 138 -181 257 -310 47 -51
52 -54 77 -42 17 7 26 19 26 34 -1 21 -79 116 -256 311 -43 47 -70 57 -92 35z"/>
<path d="M2062 7828 c-22 -22 -12 -48 36 -92 157 -144 195 -176 207 -176 19 0
45 28 45 49 0 22 -234 231 -259 231 -9 0 -22 -5 -29 -12z"/>
<path d="M8016 7742 c-135 -120 -143 -131 -118 -162 16 -20 21 -21 43 -10 44
23 249 212 249 229 0 23 -20 41 -44 41 -12 -1 -69 -44 -130 -98z"/>
<path d="M5077 7686 c-33 -69 -117 -176 -139 -176 -5 0 -21 9 -36 20 -26 19
-40 20 -317 18 l-290 -3 -3 -27 c-7 -59 98 -137 238 -179 71 -21 97 -22 502
-26 452 -5 576 1 689 36 123 39 225 121 217 176 -3 20 -10 20 -287 23 -269 2
-286 1 -318 -18 -31 -18 -36 -18 -57 -5 -34 23 -84 89 -123 163 -19 37 -36 68
-38 70 -1 1 -18 -31 -38 -72z"/>
<path d="M2757 7642 c-25 -28 -21 -40 26 -84 80 -76 218 -188 231 -188 17 0
46 33 46 52 0 22 -254 236 -281 238 -3 0 -13 -8 -22 -18z"/>
<path d="M7378 7608 c-123 -101 -208 -180 -208 -194 0 -7 11 -21 25 -30 23
-15 27 -15 54 2 45 29 230 193 241 214 8 15 6 24 -10 40 -11 11 -24 20 -29 20
-6 0 -38 -23 -73 -52z"/>
<path d="M1948 7538 c-44 -36 -26 -59 125 -162 50 -35 60 -38 82 -28 37 17 33
55 -7 85 -59 43 -170 117 -177 117 -4 0 -14 -6 -23 -12z"/>
<path d="M8162 7484 c-106 -76 -122 -96 -96 -125 9 -10 23 -19 31 -19 26 0
213 141 213 160 0 21 -25 50 -43 50 -7 0 -54 -30 -105 -66z"/>
<path d="M3138 7478 c-35 -29 -30 -48 29 -110 77 -79 85 -84 119 -55 33 29 28
41 -54 120 -65 61 -70 64 -94 45z"/>
<path d="M6992 7425 c-51 -53 -63 -71 -60 -93 2 -21 9 -28 32 -30 24 -3 39 7
92 59 35 35 64 71 64 81 0 17 -35 48 -54 48 -6 0 -39 -29 -74 -65z"/>
<path d="M2710 7346 c-25 -32 -7 -58 89 -123 51 -35 100 -63 109 -61 8 2 21
13 30 26 14 21 13 24 -20 55 -48 45 -158 117 -178 117 -10 0 -23 -7 -30 -14z"/>
<path d="M7446 7335 c-67 -45 -144 -104 -151 -115 -10 -17 5 -49 27 -56 18 -5
109 49 201 120 31 24 15 76 -24 76 -9 0 -33 -11 -53 -25z"/>
<path d="M1647 7237 c-18 -15 -27 -41 -19 -54 4 -5 64 -40 134 -77 135 -71
163 -76 174 -31 3 13 3 29 -1 35 -6 10 -201 111 -250 130 -15 6 -28 5 -38 -3z"/>
<path d="M8429 7177 c-116 -58 -124 -64 -124 -91 0 -17 7 -33 18 -40 15 -9 42
2 153 59 133 70 158 91 134 120 -21 25 -52 17 -181 -48z"/>
<path d="M2292 7168 c-17 -17 -15 -43 6 -60 20 -17 153 -99 199 -122 44 -22
62 -20 75 9 15 34 6 43 -122 120 -109 66 -136 75 -158 53z"/>
<path d="M4251 7154 c-21 -26 -21 -34 -23 -848 -4 -1123 -5 -1066 21 -1164 56
-214 197 -386 398 -486 154 -76 284 -100 503 -93 227 7 360 43 502 136 173
112 293 286 333 481 17 82 17 54 9 1094 -6 833 -7 869 -25 887 -18 18 -49 19
-858 19 l-840 0 -20 -26z m1582 -626 c4 -281 7 -674 7 -872 0 -335 -2 -367
-21 -436 -61 -220 -243 -390 -489 -455 -99 -26 -279 -31 -381 -10 -262 52
-457 213 -536 440 l-28 80 0 882 0 883 721 0 721 0 6 -512z"/>
<path d="M4463 6583 c-10 -4 -13 -126 -13 -566 0 -309 4 -598 9 -642 17 -145
63 -235 178 -350 74 -73 181 -133 293 -162 76 -20 266 -22 345 -4 240 55 425
231 482 457 16 62 18 131 18 669 l0 600 -517 0 c-284 0 -518 -2 -521 -5 -11
-11 -25 -1126 -15 -1180 13 -71 40 -122 95 -181 55 -58 109 -91 188 -114 183
-54 406 54 488 235 41 91 56 184 63 413 4 108 10 197 14 197 4 0 15 -9 26 -21
17 -20 19 -38 18 -233 0 -162 -4 -227 -17 -279 -47 -190 -177 -329 -355 -378
-247 -69 -495 54 -589 291 -16 41 -18 102 -23 650 l-5 605 -25 0 -25 0 -5
-618 c-4 -517 -7 -619 -19 -626 -20 -13 -41 -2 -52 26 -5 14 -9 279 -9 618 0
327 -3 596 -7 598 -5 2 -14 2 -20 0z m488 -972 c35 -36 37 -70 6 -107 -17 -20
-33 -27 -57 -27 -69 0 -105 89 -55 138 33 33 70 32 106 -4z"/>
<path d="M7786 7112 c-60 -37 -114 -75 -120 -84 -14 -22 2 -52 30 -56 19 -3
253 130 265 150 4 6 2 22 -4 35 -16 37 -52 28 -171 -45z"/>
<path d="M3127 7083 c-55 -91 -72 -141 -72 -213 1 -143 99 -220 173 -135 58
66 56 159 -8 308 -23 53 -46 97 -50 97 -5 0 -24 -26 -43 -57z"/>
<path d="M7010 7038 c-67 -160 -67 -254 2 -318 48 -44 122 -8 154 75 30 81 6
187 -69 297 -18 27 -35 48 -38 48 -3 0 -25 -46 -49 -102z"/>
<path d="M2052 6798 c-16 -16 -15 -43 1 -57 17 -14 214 -101 245 -108 45 -11
69 38 34 70 -25 22 -220 107 -246 107 -12 0 -27 -5 -34 -12z"/>
<path d="M8017 6757 c-65 -29 -123 -60 -128 -69 -13 -24 6 -58 32 -58 22 0
217 80 255 105 39 25 26 75 -20 75 -12 -1 -74 -24 -139 -53z"/>
<path d="M1390 6625 c-17 -21 -8 -48 20 -62 14 -6 60 -22 103 -34 85 -25 109
-21 115 21 5 29 -4 34 -104 65 -94 29 -117 31 -134 10z"/>
<path d="M8745 6625 c-22 -8 -59 -19 -82 -25 -49 -12 -69 -39 -53 -70 14 -27
39 -25 147 11 93 31 111 46 93 80 -13 22 -47 24 -105 4z"/>
<path d="M3000 6606 c-193 -36 -378 -126 -485 -236 -34 -35 -37 -42 -28 -63 8
-18 27 -28 75 -41 139 -39 306 -127 396 -210 41 -37 42 -38 32 -12 -19 50 -83
139 -144 198 -32 32 -63 58 -67 58 -5 0 -9 5 -9 11 0 17 100 -43 156 -94 71
-64 108 -127 134 -224 14 -54 27 -83 36 -83 11 0 14 29 14 155 0 155 10 197
28 113 l8 -43 8 50 c8 59 35 146 48 160 6 6 6 -1 1 -20 -4 -16 -7 -84 -7 -150
1 -91 5 -133 20 -174 25 -72 40 -75 48 -11 12 93 43 156 110 225 66 70 107 90
62 30 -48 -62 -86 -152 -98 -230 -15 -100 -1 -118 39 -50 110 188 252 305 391
322 29 3 52 11 52 16 0 20 -126 135 -198 181 -176 115 -413 161 -622 122z"/>
<path d="M6900 6601 c-147 -33 -246 -79 -368 -173 -54 -42 -112 -107 -112
-127 0 -6 11 -11 24 -11 41 0 149 -38 196 -70 69 -46 153 -135 195 -205 20
-35 45 -71 56 -81 19 -17 19 -16 19 42 0 68 -34 174 -79 246 -17 26 -27 48
-22 48 4 0 31 -25 60 -55 60 -64 97 -137 107 -212 5 -44 9 -51 20 -42 15 12
45 104 66 204 l12 60 6 -50 5 -50 17 67 c18 72 58 171 65 164 3 -3 -3 -38 -12
-78 -22 -94 -31 -312 -15 -353 14 -36 24 -23 35 45 22 133 117 260 241 321 70
35 96 34 40 -1 -51 -31 -138 -131 -175 -199 -17 -32 -31 -62 -31 -65 0 -3 19
13 42 35 83 80 183 136 338 190 110 37 120 44 120 74 0 46 -174 172 -313 225
-114 45 -193 60 -332 65 -94 4 -138 1 -205 -14z"/>
<path d="M1910 6516 c-6 -8 -10 -25 -8 -37 3 -20 22 -30 135 -69 143 -49 165
-48 171 2 4 30 -8 37 -147 83 -117 39 -133 41 -151 21z"/>
<path d="M8195 6504 c-38 -14 -89 -32 -113 -40 -49 -18 -68 -44 -52 -74 15
-27 29 -26 160 19 154 52 150 50 150 75 0 52 -40 57 -145 20z"/>
<path d="M1876 6308 c-31 -43 6 -64 207 -114 54 -13 70 -14 82 -4 19 16 19 54
1 69 -12 10 -236 71 -263 71 -6 0 -19 -10 -27 -22z"/>
<path d="M8186 6294 c-122 -34 -138 -44 -134 -78 6 -40 31 -42 155 -7 65 18
128 39 141 47 38 24 22 75 -22 73 -12 0 -75 -16 -140 -35z"/>
<path d="M3753 6195 c-100 -31 -203 -114 -281 -225 -95 -135 -160 -180 -262
-180 -96 1 -128 23 -258 178 -23 28 -63 65 -87 82 l-45 31 32 -47 c30 -44 78
-158 92 -216 6 -27 5 -27 -21 -17 -16 5 -54 30 -85 54 -68 53 -99 63 -122 40
-35 -36 -15 -104 51 -166 60 -58 98 -72 183 -72 214 0 385 0 475 -1 112 -1
142 9 208 73 50 46 67 80 67 130 0 30 -5 43 -19 51 -33 17 -49 12 -105 -39
-104 -94 -137 -104 -92 -28 51 89 141 151 327 227 55 22 79 38 88 56 15 33 14
37 -9 62 -24 26 -71 28 -137 7z"/>
<path d="M6370 6203 c-40 -15 -53 -69 -22 -96 10 -9 49 -28 87 -42 100 -38
198 -91 248 -136 44 -38 97 -122 85 -134 -10 -10 -60 20 -98 60 -19 20 -48 43
-63 52 -25 13 -31 13 -53 -2 -65 -42 10 -182 126 -234 49 -22 129 -26 275 -12
44 4 139 3 211 -2 166 -12 222 1 294 69 55 51 73 87 68 135 -2 26 -9 36 -30
43 -23 8 -34 4 -80 -31 -51 -40 -129 -85 -135 -80 -8 9 72 198 98 230 75 93
-45 2 -131 -101 -36 -42 -81 -87 -99 -99 -68 -46 -203 -39 -271 15 -19 16 -57
59 -85 98 -81 112 -161 186 -245 227 -73 35 -149 52 -180 40z"/>
<path d="M1555 5788 c-29 -17 -35 -28 -35 -75 0 -79 84 -108 138 -47 61 70
-21 168 -103 122z"/>
<path d="M8585 5777 c-58 -50 -25 -141 51 -141 74 0 111 90 58 139 -34 31 -75
32 -109 2z"/>
<path d="M2259 5664 c-40 -49 5 -187 90 -277 62 -65 126 -101 208 -117 88 -17
170 -1 320 66 143 63 191 76 293 77 80 0 132 -16 205 -66 38 -26 56 -26 88 1
21 19 23 82 3 120 -21 41 -65 78 -121 104 -43 19 -66 23 -160 23 -130 0 -176
-16 -322 -108 -112 -71 -161 -89 -243 -89 -117 -1 -206 64 -235 169 -25 92
-36 108 -76 111 -24 2 -40 -2 -50 -14z"/>
<path d="M7887 5662 c-9 -10 -25 -47 -36 -82 -39 -125 -118 -184 -245 -183
-85 0 -113 11 -247 97 -119 77 -173 96 -285 103 -136 9 -250 -38 -300 -122
-28 -48 -31 -91 -8 -123 21 -31 52 -28 117 12 124 74 243 69 447 -21 167 -74
232 -89 318 -75 93 16 181 62 238 125 83 92 127 225 89 267 -23 25 -67 26 -88
2z"/>
<path d="M3844 5465 c-159 -80 -260 -293 -271 -572 -7 -163 7 -263 56 -410 48
-145 116 -257 216 -360 44 -46 80 -83 79 -83 -16 0 -259 126 -311 162 -122 84
-252 235 -304 353 -32 73 -59 194 -59 267 l0 68 -81 0 -82 0 7 -67 c11 -107
34 -191 82 -289 52 -110 118 -185 218 -251 40 -27 81 -54 92 -60 33 -22 -150
55 -311 132 -399 188 -625 388 -819 726 -43 76 -59 95 -79 97 -33 4 -51 -27
-41 -71 26 -123 160 -344 270 -446 67 -63 178 -143 251 -179 83 -43 52 -41
-37 2 -318 155 -351 184 -485 421 -104 184 -153 253 -235 336 -81 81 -204 159
-252 159 -35 0 -48 -24 -48 -92 0 -205 161 -458 380 -601 212 -137 597 -314
845 -387 188 -56 448 -141 458 -150 5 -4 -31 1 -80 12 -72 16 -129 20 -308 21
-194 1 -231 -1 -313 -21 -160 -37 -292 -114 -399 -232 -109 -121 -91 -170 65
-170 169 0 336 42 561 142 199 88 279 109 441 115 235 9 399 -33 808 -211 84
-36 159 -66 167 -66 8 0 15 -4 15 -10 0 -5 -2 -10 -5 -10 -3 0 -58 -16 -123
-36 -190 -57 -258 -68 -442 -68 -131 0 -190 5 -285 23 -133 25 -239 30 -274
12 -23 -13 -41 -48 -34 -67 15 -41 413 -134 571 -134 173 0 434 81 687 213 86
45 100 55 100 77 0 19 -9 29 -35 42 -225 108 -281 137 -348 185 -155 111 -272
248 -353 418 -123 257 -138 568 -39 791 35 79 83 131 158 173 66 37 79 60 54
91 -28 33 -70 34 -128 5z"/>
<path d="M6290 5479 c-29 -12 -40 -26 -40 -55 0 -15 18 -30 71 -59 74 -41 123
-95 155 -171 54 -126 77 -332 55 -485 -40 -276 -207 -552 -433 -712 -76 -54
-227 -135 -321 -172 -72 -29 -94 -53 -78 -83 10 -19 196 -114 331 -169 210
-84 382 -114 557 -95 172 19 465 101 471 133 5 26 -31 59 -74 69 -45 10 -94 5
-299 -30 -216 -37 -424 -20 -667 54 -65 20 -120 36 -123 36 -3 0 -5 5 -5 10 0
6 5 10 12 10 6 0 80 29 162 65 406 174 590 221 821 212 155 -6 222 -23 417
-108 239 -103 369 -138 555 -146 94 -5 116 -3 138 11 14 9 25 23 25 32 0 32
-45 99 -109 163 -102 100 -218 162 -372 198 -146 33 -565 19 -686 -24 -13 -4
-15 -3 -8 5 6 6 100 38 210 72 437 135 494 156 784 296 368 177 513 299 624
520 61 122 87 282 54 329 -42 56 -252 -82 -374 -245 -23 -30 -78 -118 -122
-194 -127 -217 -161 -260 -255 -320 -95 -61 -336 -190 -343 -183 -2 3 21 19
53 37 95 55 246 173 310 242 90 100 214 337 214 411 0 29 -18 47 -46 47 -17 0
-36 -24 -88 -113 -152 -257 -314 -427 -553 -580 -95 -61 -202 -114 -405 -202
-170 -74 -207 -82 -96 -23 82 44 184 147 230 234 46 86 85 219 94 319 l7 75
-80 0 -81 0 -4 -97 c-8 -170 -78 -326 -210 -468 -82 -88 -194 -164 -353 -238
l-120 -57 47 41 c220 190 344 527 317 868 -14 189 -72 335 -176 451 -75 83
-137 111 -193 89z"/>
<path d="M971 5392 c-26 -49 80 -251 190 -362 119 -120 268 -180 500 -200 67
-5 132 -13 145 -16 13 -3 24 -4 24 -1 0 11 -148 228 -197 290 -141 175 -354
290 -564 304 -81 5 -88 4 -98 -15z"/>
<path d="M9083 5400 c-145 -29 -307 -117 -417 -226 -60 -60 -256 -329 -256
-353 0 -4 30 -4 68 0 37 4 114 13 171 19 261 28 449 158 566 390 47 93 61 145
45 165 -14 17 -103 19 -177 5z"/>
<path d="M3114 5320 c-100 -23 -159 -143 -120 -243 41 -108 150 -155 251 -108
128 59 155 218 52 308 -53 47 -112 60 -183 43z"/>
<path d="M6975 5306 c-72 -34 -100 -81 -100 -166 0 -56 4 -73 28 -109 38 -57
101 -86 169 -78 104 13 169 78 176 175 5 83 -26 138 -98 175 -66 33 -110 34
-175 3z"/>
<path d="M1530 4650 c-83 -22 -242 -97 -248 -119 -6 -19 102 -116 174 -157
162 -91 388 -131 674 -121 238 9 493 48 469 71 -13 13 -182 108 -304 171 -170
88 -294 138 -397 159 -107 22 -273 20 -368 -4z"/>
<path d="M8370 4663 c-109 -19 -288 -84 -408 -149 -195 -106 -303 -167 -324
-183 l-23 -19 40 -10 c180 -48 628 -64 815 -29 197 36 328 96 430 196 75 73
76 69 -45 127 -113 54 -210 74 -344 73 -64 -1 -127 -4 -141 -6z"/>
<path d="M4165 4495 c-54 -53 -12 -145 66 -145 11 0 34 13 50 29 35 35 38 77
8 115 -28 36 -89 37 -124 1z"/>
<path d="M4937 4514 c-30 -31 25 -162 78 -186 33 -15 32 -21 -9 -40 -128 -62
-176 -206 -110 -329 90 -165 325 -173 431 -16 42 63 51 123 28 195 -20 63 -82
132 -139 153 -33 12 -49 29 -27 29 19 0 72 54 92 92 11 22 19 53 17 71 l-3 32
-176 3 c-96 1 -178 -1 -182 -4z"/>
<path d="M5951 4503 c-12 -10 -24 -35 -28 -55 -5 -32 -1 -41 25 -68 38 -37 70
-38 111 -4 62 52 29 144 -51 144 -20 0 -45 -8 -57 -17z"/>
<path d="M1457 4060 c-44 -13 -94 -57 -124 -108 -23 -39 -28 -59 -28 -112 1
-74 19 -120 67 -169 54 -55 102 -74 179 -69 58 3 74 8 106 34 45 37 62 76 43
98 -18 22 -57 20 -92 -5 -45 -32 -109 -22 -156 24 -92 93 -14 255 107 219 33
-11 40 -18 48 -50 8 -34 12 -37 42 -37 91 0 57 128 -46 171 -36 15 -102 17
-146 4z"/>
<path d="M8615 4046 c-55 -26 -85 -66 -85 -114 0 -36 20 -54 56 -50 20 2 30
11 37 33 15 47 26 55 78 55 70 0 110 -37 116 -106 4 -36 0 -60 -11 -83 -35
-66 -129 -92 -191 -51 -81 54 -127 -20 -54 -86 39 -35 65 -44 126 -44 222 0
328 271 162 413 -70 60 -152 72 -234 33z"/>
<path d="M5053 3781 c-82 -38 -97 -128 -38 -225 19 -32 35 -62 35 -67 0 -5
-26 -9 -58 -9 -74 0 -102 -18 -102 -66 0 -22 6 -37 15 -40 24 -10 18 -20 -45
-71 -33 -26 -60 -51 -60 -55 0 -5 145 -8 323 -8 l322 1 -30 22 c-16 12 -48 38
-72 58 -41 36 -41 37 -22 55 26 23 24 50 -6 79 -20 21 -34 25 -79 25 -30 0
-57 4 -60 8 -3 4 11 31 31 59 64 92 52 195 -28 235 -43 23 -74 22 -126 -1z"/>
<path d="M7825 3340 c-33 -5 -134 -25 -225 -45 -457 -101 -659 -137 -952 -171
-41 -4 -57 -11 -60 -23 -1 -9 -2 -80 0 -158 l3 -143 62 0 c166 0 616 -67 997
-147 98 -21 154 -27 260 -27 131 -1 137 0 200 30 88 42 140 90 181 166 32 60
34 68 34 163 0 89 -3 106 -26 150 -85 159 -262 236 -474 205z m227 -222 c40
-28 72 -99 63 -141 -10 -44 -31 -75 -68 -97 -77 -47 -173 -4 -201 91 -4 14
-48 17 -367 22 -199 4 -470 7 -601 7 -205 0 -238 2 -238 15 0 8 6 15 13 15 91
2 717 22 927 30 271 10 274 10 295 34 29 34 54 45 103 46 29 0 54 -7 74 -22z"/>
<path d="M1485 3329 c-38 -22 -55 -53 -55 -101 0 -39 5 -52 31 -77 25 -25 39
-31 74 -31 134 0 143 200 10 216 -22 2 -49 -1 -60 -7z"/>
<path d="M2215 3326 c-27 -7 -73 -24 -100 -38 -205 -105 -259 -370 -110 -535
101 -113 259 -155 465 -123 65 10 894 169 918 176 9 2 12 45 12 167 l0 164
-107 22 c-60 12 -241 52 -403 87 -434 96 -552 110 -675 80z m230 -82 c24 -6
38 -34 26 -52 -3 -6 -39 -10 -81 -9 -63 2 -81 -2 -114 -22 -49 -31 -76 -75
-76 -128 0 -53 13 -86 50 -131 37 -45 38 -76 5 -98 -56 -36 -133 24 -162 126
-16 58 -16 58 -39 43 -37 -24 -54 -11 -54 42 0 104 92 203 217 235 37 9 183 5
228 -6z"/>
<path d="M8654 3329 c-31 -16 -54 -62 -54 -109 0 -105 140 -140 195 -48 54 91
-46 203 -141 157z"/>
<path d="M3491 3234 c-27 -34 -33 -99 -29 -309 2 -148 6 -186 20 -212 21 -38
50 -49 88 -33 54 22 60 54 60 298 l0 220 -26 31 c-34 41 -83 43 -113 5z"/>
<path d="M3905 3231 c-22 -10 -62 -37 -90 -60 -27 -23 -68 -46 -90 -52 l-40
-10 3 -145 c3 -141 3 -144 25 -144 26 0 55 -18 115 -73 95 -85 199 -90 261
-11 20 25 21 39 21 223 0 177 -2 199 -20 228 -37 62 -110 79 -185 44z m23
-268 l2 -173 -24 0 c-15 0 -30 8 -36 19 -11 21 -14 271 -4 309 5 18 13 22 33
20 l26 -3 3 -172z"/>
<path d="M6172 3234 c-18 -9 -43 -31 -55 -48 -21 -29 -22 -41 -22 -221 0 -211
7 -240 65 -270 67 -35 154 -12 250 67 31 25 70 49 88 53 l33 7 -3 146 -3 146
-31 7 c-18 3 -54 24 -80 46 -27 23 -64 48 -82 57 -50 26 -121 30 -160 10z
m160 -231 c2 -76 1 -155 -1 -175 -3 -34 -6 -38 -32 -38 l-29 0 0 175 0 175 29
0 30 0 3 -137z"/>
<path d="M4692 3179 c-45 -16 -146 -36 -279 -55 -33 -5 -33 -6 -33 -59 l0 -55
824 0 824 0 4 53 c2 28 4 53 4 53 -1 1 -77 7 -171 12 -131 9 -192 18 -265 38
l-95 27 -380 2 c-350 2 -384 1 -433 -16z"/>
<path d="M4180 2960 l0 -160 75 0 75 0 0 160 0 160 -75 0 -75 0 0 -160z"/>
<path d="M4382 2873 l3 -68 821 -3 821 -2 7 46 c3 26 6 57 6 70 l0 24 -830 0
-831 0 3 -67z"/>
<path d="M5073 2560 c-48 -19 -58 -95 -18 -135 51 -52 139 -14 139 60 0 63
-59 100 -121 75z"/>
<path d="M1740 2291 c-84 -27 -133 -56 -197 -115 -108 -101 -160 -224 -150
-361 16 -231 216 -415 451 -415 132 0 231 50 334 168 111 128 186 156 422 157
181 0 215 -9 288 -70 l33 -28 21 20 c27 27 15 49 -54 96 -87 59 -147 71 -328
64 -85 -4 -183 -13 -218 -20 -54 -12 -62 -12 -57 0 3 8 5 40 5 71 l0 57 367 3
c343 3 371 2 432 -17 41 -12 82 -34 107 -55 l41 -35 22 23 22 23 -45 41 c-24
22 -58 48 -76 57 -85 44 -111 48 -350 56 -129 4 -248 11 -264 16 l-30 9 38 23
c49 31 149 152 136 165 -6 6 -53 -20 -133 -73 -133 -88 -215 -123 -334 -142
-40 -6 -73 -14 -73 -16 0 -2 9 -22 21 -44 27 -54 34 -125 19 -190 -36 -155
-147 -239 -300 -226 -83 7 -148 36 -204 93 -68 67 -90 123 -91 224 0 77 3 92
33 152 50 102 125 157 245 179 82 15 165 0 240 -45 49 -29 54 -30 85 -17 17 8
32 18 32 22 0 12 -91 89 -137 116 -92 54 -246 69 -353 34z"/>
<path d="M8221 2290 c-89 -32 -201 -116 -201 -151 0 -14 58 -40 65 -29 13 21
104 59 167 70 203 36 379 -100 396 -305 10 -130 -54 -245 -172 -305 -62 -32
-77 -35 -150 -35 -71 1 -88 4 -135 30 -126 69 -186 262 -121 388 12 21 20 40
18 41 -2 1 -48 12 -103 24 -121 27 -212 69 -325 151 -87 62 -110 72 -110 47 0
-20 72 -109 120 -147 40 -33 41 -33 18 -42 -13 -5 -129 -13 -258 -17 -243 -7
-267 -11 -356 -59 -21 -11 -56 -36 -78 -54 -34 -30 -37 -36 -27 -55 15 -27 33
-28 56 -2 10 11 43 32 74 48 l56 27 397 1 396 1 4 -66 c2 -36 3 -67 2 -69 -1
-2 -28 2 -61 8 -94 18 -351 25 -414 10 -69 -16 -138 -53 -181 -97 l-33 -34 23
-19 c22 -18 23 -18 73 15 69 47 105 56 244 62 240 10 323 -19 467 -168 120
-124 173 -152 295 -157 220 -10 412 131 468 343 19 75 19 125 0 200 -25 95
-54 145 -124 216 -103 103 -213 149 -355 149 -54 -1 -99 -7 -135 -20z"/>
<path d="M3416 2225 c-3 -9 9 -26 33 -45 21 -17 49 -50 62 -73 l24 -42 3 -540
c2 -388 0 -551 -8 -580 -15 -51 -54 -102 -96 -127 -42 -25 -46 -58 -8 -58 14
0 65 14 112 31 l87 31 103 -13 c318 -38 532 42 621 231 23 48 26 68 26 155 0
121 -21 178 -93 247 -46 45 -114 88 -139 88 -22 0 -14 18 11 24 50 12 123 83
156 150 30 61 32 71 28 145 -11 183 -131 301 -339 331 -35 5 -141 10 -236 10
-156 0 -180 2 -250 25 -92 29 -89 29 -97 10z m531 -176 c38 -14 71 -46 96 -94
32 -61 30 -195 -3 -260 -38 -72 -66 -89 -161 -94 l-79 -3 0 231 0 231 59 0
c33 0 72 -5 88 -11z m16 -590 c126 -35 192 -242 123 -383 -46 -95 -116 -136
-230 -136 l-56 0 0 265 0 265 63 0 c34 0 79 -5 100 -11z"/>
<path d="M4807 2228 c-2 -7 11 -30 29 -50 18 -20 37 -52 42 -70 15 -55 11 -74
-124 -553 -47 -165 -103 -365 -126 -445 -54 -191 -79 -244 -134 -283 -48 -34
-59 -67 -21 -67 12 0 56 13 97 30 94 37 117 37 213 0 90 -34 96 -35 103 -15 4
9 -11 31 -39 59 -65 63 -69 100 -28 271 l32 133 47 6 c26 3 112 8 192 12 l145
7 33 -149 c42 -192 42 -219 -4 -279 -34 -45 -39 -75 -12 -75 7 0 47 13 88 30
95 37 129 37 230 0 134 -49 168 -36 84 34 -26 22 -55 58 -66 83 -18 41 -122
424 -244 898 -29 116 -54 230 -54 253 0 56 24 108 61 129 28 17 37 37 21 47
-4 2 -50 -6 -101 -20 -125 -32 -226 -32 -349 1 -108 29 -109 29 -115 13z m298
-438 c20 -96 48 -220 61 -275 36 -149 48 -135 -122 -135 -134 0 -145 1 -140
18 20 67 89 331 117 444 18 76 36 134 40 130 3 -4 23 -86 44 -182z"/>
<path d="M5754 2226 c-3 -9 10 -30 35 -55 71 -71 71 -73 71 -680 0 -358 -4
-549 -11 -576 -7 -25 -28 -56 -55 -82 -56 -55 -59 -78 -6 -70 20 4 66 18 101
32 84 32 122 32 223 -5 94 -34 104 -36 112 -15 3 9 -8 27 -29 46 -64 58 -67
75 -72 356 l-5 253 34 0 c23 0 42 -8 55 -22 34 -38 189 -358 223 -461 13 -43
10 -96 -11 -144 -7 -18 -10 -35 -6 -39 3 -4 45 7 93 25 47 17 98 31 113 31 15
0 69 -14 121 -30 108 -36 175 -38 175 -6 0 14 -10 22 -34 28 -47 13 -103 50
-140 95 -18 21 -87 147 -154 280 l-121 241 70 65 c44 41 79 84 96 118 88 181
46 401 -97 499 -87 60 -148 72 -385 77 -215 4 -221 5 -373 49 -10 3 -20 -1
-23 -10z m536 -181 c32 -16 62 -50 86 -95 15 -27 19 -57 19 -135 0 -88 -3
-105 -25 -145 -36 -64 -86 -90 -175 -90 l-71 0 1 240 0 239 30 4 c42 5 106 -4
135 -18z"/>
<path d="M2353 1307 c-47 -18 -63 -36 -40 -48 14 -8 17 -25 17 -104 l0 -95 30
0 30 0 0 130 c0 72 -1 130 -2 129 -2 0 -17 -6 -35 -12z"/>
<path d="M2559 1291 c-37 -38 -39 -82 -4 -116 26 -27 73 -33 93 -13 17 17 15
1 -5 -33 -13 -22 -28 -31 -55 -36 -28 -4 -38 -10 -38 -24 0 -25 41 -25 98 1
48 22 81 78 82 138 0 99 -104 149 -171 83z"/>
<path d="M2850 1300 c-11 -11 -20 -24 -20 -28 0 -17 13 -22 27 -10 11 9 19 7
35 -10 21 -20 21 -22 5 -40 -23 -25 -21 -39 4 -45 30 -8 24 -71 -8 -75 -13 -2
-23 1 -23 7 0 16 -36 13 -50 -4 -17 -20 -5 -33 36 -41 45 -8 110 11 124 36 15
27 12 62 -6 88 -13 19 -14 28 -4 52 28 67 -67 123 -120 70z"/>
<path d="M7043 1300 c-43 -19 -57 -40 -28 -40 12 0 15 -18 15 -100 l0 -100 35
0 35 0 0 130 c0 72 -3 130 -7 129 -5 0 -27 -9 -50 -19z"/>
<path d="M7271 1294 c-40 -33 -42 -79 -6 -118 26 -28 72 -35 93 -14 21 21 13
-14 -9 -41 -15 -18 -30 -25 -54 -24 -25 1 -34 -4 -38 -18 -7 -27 7 -32 61 -24
83 12 133 90 119 183 -13 78 -103 109 -166 56z"/>
<path d="M7566 1299 c-21 -17 -37 -59 -22 -59 2 0 11 -3 19 -6 9 -3 16 3 20
15 6 25 29 27 51 5 25 -24 9 -63 -50 -124 -30 -31 -54 -60 -54 -66 0 -6 35
-11 84 -12 77 -3 86 -1 96 18 18 34 8 45 -38 41 -23 -1 -42 0 -42 3 0 3 18 22
40 43 56 53 62 92 22 133 -37 37 -86 40 -126 9z"/>
<path d="M7856 1299 c-29 -23 -35 -59 -10 -59 9 0 23 8 30 18 19 25 48 4 52
-39 2 -29 -5 -42 -53 -91 -30 -31 -55 -60 -55 -65 0 -5 36 -10 79 -11 84 -2
111 10 111 46 0 14 -9 17 -52 14 -49 -3 -52 -2 -33 13 44 33 75 69 77 89 3 44
-3 62 -28 84 -32 28 -83 29 -118 1z"/>
<path d="M3133 1300 c-22 -9 -33 -50 -13 -50 5 0 11 -44 12 -97 l3 -98 30 0
30 1 3 127 c3 127 3 127 -20 126 -13 0 -33 -4 -45 -9z"/>
</g>
</svg>
