<svg viewBox="0 0 128 128" xml:space="preserve" xmlns="http://www.w3.org/2000/svg" enable-background="new 0 0 128 128"><circle cx="64" cy="64" r="64" fill="#4c78b5" class="fill-fc8ba4" data-darkreader-inline-fill="" style="--darkreader-inline-fill: #4a73ab;"></circle><path d="M117.7 105H102c-.6 0-1-.4-1-1s.4-1 1-1h15.7c.6 0 1 .4 1 1s-.4 1-1 1zM93 105H7.8c-.6 0-1-.4-1-1s.4-1 1-1H93c.6 0 1 .4 1 1s-.4 1-1 1z" fill="#663210" class="fill-663210" data-darkreader-inline-fill="" style="--darkreader-inline-fill: #574638;"></path><circle cx="86" cy="41.3" r="13.7" fill="#e9f243" class="fill-fbd000" data-darkreader-inline-fill="" style="--darkreader-inline-fill: #d3d559;"></circle><path d="M79.6 100.3c-.2 2.2-2.2 4-4.4 4h-24c-2.2 0-4.2-1.8-4.4-4l-5.3-58.4c-.2-2.2 1.4-4 3.6-4h36c2.2 0 3.8 1.8 3.6 4l-5.1 58.4z" fill="#ffffff" class="fill-d4d6d6" data-darkreader-inline-fill="" style="--darkreader-inline-fill: #e7e1d5;"></path><path d="m43 57 3.9 43.3c.2 2.2 2.2 4 4.4 4h24c2.2 0 4.2-1.8 4.4-4L83.4 57H43z" fill="#ffd970" class="fill-75b600" data-darkreader-inline-fill="" style="--darkreader-inline-fill: #e9c76e;"></path><path d="M75.9 97H50.5c-1.9 0-3.6-1.6-4.3-3.3l.6 6.6c.2 2.2 2.2 4 4.4 4h24c2.2 0 4.2-1.8 4.4-4l.6-6.6c-.7 1.7-2.4 3.3-4.3 3.3z" fill="#de9959" class="fill-5c8e0d" data-darkreader-inline-fill="" style="--darkreader-inline-fill: #d29254;"></path><path d="M64 95.7c.4 1-.2 2.2-1.2 2.6l-7.5 2.7c-1 .4-2.2-.2-2.6-1.2L50 92.2c-.4-1 .2-2.2 1.2-2.6l7.5-2.7c1-.4 2.2.2 2.6 1.2l2.7 7.6zM71.1 91.8c-.8.7-2.1.6-2.8-.3l-5.1-6.1c-.7-.8-.6-2.1.3-2.8l6.1-5.1c.8-.7 2.1-.6 2.8.3l5.1 6.1c.7.8.6 2.1-.3 2.8l-6.1 5.1z" fill="#ffffff" class="fill-d4d6d6" data-darkreader-inline-fill="" style="--darkreader-inline-fill: #e7e1d5;"></path><path d="M61.7 101.9c-.9 0-1.7-.6-1.9-1.5L38.3 23.1l-23-8.3c-1-.4-1.6-1.5-1.2-2.6.4-1 1.5-1.6 2.6-1.2l24 8.7c.6.2 1.1.7 1.2 1.3l21.7 78.3c.3 1.1-.3 2.2-1.4 2.5-.2.1-.4.1-.5.1z" fill="#663210" class="fill-663210" data-darkreader-inline-fill="" style="--darkreader-inline-fill: #574638;"></path><path d="M75 105H51c-2.7 0-5.1-2.2-5.3-4.9L40.6 42c-.1-1.3.3-2.6 1.2-3.6.9-1 2.1-1.4 3.5-1.4h36c1.3 0 2.6.5 3.5 1.4.9 1 1.3 2.2 1.2 3.6l-5.5 58.1c-.4 2.7-2.8 4.9-5.5 4.9zM45.2 38.9c-.8 0-1.5.3-2 .8s-.7 1.3-.7 2.1l5.1 58.1c.1 1.7 1.7 3.1 3.4 3.1h24c1.7 0 3.2-1.4 3.4-3.1l5.5-58.1c.1-.8-.2-1.5-.7-2-.5-.5-1.2-.8-2-.8h-36z" fill="#663210" class="fill-663210" data-darkreader-inline-fill="" style="--darkreader-inline-fill: #574638;"></path><path d="M54.4 81.7c-1 .4-2.2 0-2.6-1l-3.2-7.3c-.4-1 0-2.2 1-2.6l7.3-3.2c1-.4 2.2 0 2.6 1l3.2 7.3c.4 1 0 2.2-1 2.6l-7.3 3.2z" fill="#ffffff" class="fill-d4d6d6" data-darkreader-inline-fill="" style="--darkreader-inline-fill: #e7e1d5;"></path><path d="M86.2 56c-2.9 0-5.7-.8-8.1-2.4-.5-.3-.6-.9-.3-1.4.3-.5.9-.6 1.4-.3 2.1 1.4 4.5 2.1 7 2.1 7 0 12.8-5.9 12.8-13s-5.7-13-12.8-13c-7.1 0-12.8 5.8-12.8 13 0 .6-.5 1-1 1s-1-.5-1-1c0-8.3 6.7-15 14.8-15 8.2 0 14.8 6.7 14.8 15s-6.7 15-14.8 15z" fill="#663210" class="fill-663210" data-darkreader-inline-fill="" style="--darkreader-inline-fill: #574638;"></path><path d="M90.2 50.9c-.4 0-.8-.2-.9-.6-.2-.5 0-1.1.5-1.3 3.1-1.4 5.2-4.4 5.2-7.7 0-4.6-3.9-8.4-8.8-8.4-1.6 0-3.1.4-4.5 1.2-.5.3-1.1.1-1.4-.3-.3-.5-.1-1.1.4-1.4 1.7-1 3.6-1.5 5.5-1.5 6 0 10.8 4.7 10.8 10.4 0 4.1-2.5 7.8-6.4 9.5-.1.1-.3.1-.4.1zM77 77.7s-.1 0 0 0c-.6 0-1-.5-1-1.1l1.3-16c0-.5.5-1 1.1-.9.6 0 1 .5.9 1.1l-1.3 16c0 .5-.5.9-1 .9zM68 43H51c-.6 0-1-.4-1-1s.4-1 1-1h17c.6 0 1 .4 1 1s-.4 1-1 1zM103 73c-2.2 0-4-1.8-4-4s1.8-4 4-4 4 1.8 4 4-1.8 4-4 4zm0-6.1c-1.2 0-2.1 1-2.1 2.1 0 1.2 1 2.1 2.1 2.1 1.2 0 2.1-1 2.1-2.1 0-1.2-.9-2.1-2.1-2.1zM21 55c-2.2 0-4-1.8-4-4s1.8-4 4-4 4 1.8 4 4-1.8 4-4 4zm0-6c-1.2 0-2 .8-2 2s.8 2 2 2 2-.8 2-2-.8-2-2-2zM69.3 19.3c0-.4-.4-.8-1-.9l-1.9-.3c-.5-.1-1.1-.6-1.1-1.1l-.3-1.9c-.1-.5-.5-1-.9-1s-.8.4-.9 1l-.1 1.9c-.1.5-.6 1.1-1.1 1.1l-1.9.3c-.5.1-1 .5-1 .9s.4.8 1 .9l1.9.3c.5.1 1.1.6 1.1 1.1l.3 1.9c.1.5.5 1 .9 1s.8-.4.8-1l.3-2.1c.1-.5.6-1 1.1-1.1l1.8-.1c.6-.2 1-.5 1-.9zM32.3 75.8c0-.4-.4-.8-1-.9l-1.9-.3c-.5-.1-1.1-.6-1.1-1.1l-.3-1.9c-.1-.5-.5-1-.9-1s-.8.4-.9 1l-.3 1.9c-.1.5-.6 1.1-1.1 1.1l-1.9.3c-.5.1-1 .5-1 .9s.4.8 1 .9l1.9.3c.5.1 1.1.6 1.1 1.1l.3 1.9c.1.5.5 1 .9 1s.8-.4.8-1l.3-2.1c.1-.5.6-1 1.1-1.1l1.8-.1c.8-.2 1.2-.5 1.2-.9zM101.8 90.3c0-.4-.4-.8-1-.9l-1.8-.2c-.5-.1-1.1-.6-1.1-1.1l-.3-1.9c-.1-.5-.5-1-.9-1s-.8.4-.9 1l-.2 1.8c-.1.5-.6 1.1-1.1 1.1l-1.9.3c-.5.1-1 .5-1 .9s.4.8 1 .9l1.9.3c.5.1 1.1.6 1.1 1.1l.3 1.9c.1.5.5 1 .9 1s.8-.4.8-1l.3-2.1c.1-.5.6-1 1.1-1.1l1.8-.1c.6-.2 1-.5 1-.9zM117.3 49.8c0-.4-.4-.8-1-.9l-1.9-.3c-.5-.1-1.1-.6-1.1-1.1l-.3-1.9c-.1-.5-.5-1-.9-1s-.8.4-.9 1l-.3 1.9c-.1.5-.6 1.1-1.1 1.1l-1.9.3c-.5.1-1 .5-1 .9s.4.8 1 .9l1.9.3c.5.1 1.1.6 1.1 1.1l.3 1.9c.1.5.5 1 .9 1s.8-.4.8-1l.3-2.1c.1-.5.6-1 1.1-1.1l1.8-.1c.8-.2 1.2-.5 1.2-.9zM51 119c-2.2 0-4-1.8-4-4s1.8-4 4-4 4 1.8 4 4-1.8 4-4 4zm0-6.1c-1.2 0-2.1 1-2.1 2.1 0 1.2 1 2.1 2.1 2.1 1.2 0 2.1-1 2.1-2.1 0-1.2-.9-2.1-2.1-2.1z" fill="#ffffff" class="fill-ffffff" data-darkreader-inline-fill="" style="--darkreader-inline-fill: #e7e1d5;"></path></svg>